# xmcd CD database file
#
# Track frame offsets:
#	150
#	24055
#	41189
#	67234
#	85299
#	107727
#	127073
#	146207
#	173651
#	197225
#	218752
#	241553
#	261844
#	287087
#
# Disc length: 4079 seconds
#
# Revision: 0
# Processed by: cddbd v1.5.2PL0 Copyright (c) Steve Scherf et al.
# Submitted via: CDex 1.51
#
DISCID=d10fed0e
DTITLE=Various Artist - Jazz You Night and Day (Night)
DYEAR=2008
DGENRE=Jazz
TTITLE0=The Look Of Love
TTITLE1=What Are You Doing The Rest Of Your Life
TTITLE2=This Masquerade
TTITLE3=Since We Met
TTITLE4=Forever In Love
TTITLE5=Love All The Hurt Away
TTITLE6=(You Make Me Feel Like) A Natural Woman
TTITLE7=The Promise
TTITLE8=You Are The One
TTITLE9=By The Time This Night Is Over
TTITLE10=Tamara
TTITLE11=I Just Wanna Stop
TTITLE12=Come Back To Me
TTITLE13=One On One
EXTD=YEAR: 2008
EXTT0=
EXTT1=
EXTT2=
EXTT3=
EXTT4=
EXTT5=
EXTT6=
EXTT7=
EXTT8=
EXTT9=
EXTT10=
EXTT11=
EXTT12=
EXTT13=
PLAYORDER=
